<svg width="18" height="18" viewBox="0 0 18 18" fill="none" xmlns="http://www.w3.org/2000/svg">
<path d="M2.89684 10.142C2.75975 10.1425 2.62534 10.1041 2.50923 10.0312C2.39311 9.9583 2.30006 9.85396 2.24089 9.7303C2.18171 9.60664 2.15884 9.46872 2.17493 9.33258C2.19102 9.19644 2.2454 9.06765 2.33177 8.96119L9.5038 1.57182C9.5576 1.50972 9.63091 1.46776 9.7117 1.45282C9.7925 1.43788 9.87597 1.45085 9.94842 1.4896C10.0209 1.52835 10.078 1.59058 10.1104 1.66608C10.1428 1.74157 10.1486 1.82585 10.1268 1.90507L8.73589 6.26624C8.69487 6.37601 8.6811 6.49409 8.69575 6.61036C8.71039 6.72662 8.75303 6.8376 8.81999 6.93377C8.88695 7.02993 8.97624 7.10842 9.0802 7.1625C9.18416 7.21658 9.29969 7.24463 9.41687 7.24425H14.488C14.6251 7.24378 14.7595 7.28222 14.8756 7.3551C14.9917 7.42798 15.0848 7.53232 15.144 7.65598C15.2031 7.77964 15.226 7.91756 15.2099 8.0537C15.1938 8.18985 15.1394 8.31863 15.0531 8.42509L7.88104 15.8145C7.82724 15.8766 7.75393 15.9185 7.67314 15.9335C7.59234 15.9484 7.50887 15.9354 7.43642 15.8967C7.36397 15.8579 7.30685 15.7957 7.27443 15.7202C7.24201 15.6447 7.23622 15.5604 7.25801 15.4812L8.64895 11.12C8.68997 11.0103 8.70374 10.8922 8.68909 10.7759C8.67445 10.6597 8.63181 10.5487 8.56485 10.4525C8.49789 10.3563 8.4086 10.2779 8.30464 10.2238C8.20068 10.1697 8.08516 10.1417 7.96797 10.142H2.89684Z" fill="url(#paint0_linear_57_2768)" stroke="url(#paint1_linear_57_2768)" stroke-width="1.4489" stroke-linecap="round" stroke-linejoin="round"/>
<defs>
<linearGradient id="paint0_linear_57_2768" x1="8.69242" y1="1.44678" x2="8.69242" y2="15.9395" gradientUnits="userSpaceOnUse">
<stop stop-color="#793FEE"/>
<stop offset="1" stop-color="#26FDFE"/>
</linearGradient>
<linearGradient id="paint1_linear_57_2768" x1="8.69242" y1="1.44678" x2="8.69242" y2="15.9395" gradientUnits="userSpaceOnUse">
<stop stop-color="#793FEE"/>
<stop offset="1" stop-color="#26FDFE"/>
</linearGradient>
</defs>
</svg>
