<svg width="30" height="30" viewBox="0 0 30 30" fill="none" xmlns="http://www.w3.org/2000/svg">
<mask id="path-1-inside-1_57_3681" fill="white">
<path d="M0 7.5C0 3.35786 3.35786 0 7.5 0H22.5C26.6421 0 30 3.35786 30 7.5V22.5C30 26.6421 26.6421 30 22.5 30H7.5C3.35786 30 0 26.6421 0 22.5V7.5Z"/>
</mask>
<path d="M0 7.5C0 3.35786 3.35786 0 7.5 0H22.5C26.6421 0 30 3.35786 30 7.5V22.5C30 26.6421 26.6421 30 22.5 30H7.5C3.35786 30 0 26.6421 0 22.5V7.5Z" fill="white" fill-opacity="0.05"/>
<path d="M7.5 0V0.6H22.5V0V-0.6H7.5V0ZM30 7.5H29.4V22.5H30H30.6V7.5H30ZM22.5 30V29.4H7.5V30V30.6H22.5V30ZM0 22.5H0.6V7.5H0H-0.6V22.5H0ZM7.5 30V29.4C3.68924 29.4 0.6 26.3108 0.6 22.5H0H-0.6C-0.6 26.9735 3.02649 30.6 7.5 30.6V30ZM30 22.5H29.4C29.4 26.3108 26.3108 29.4 22.5 29.4V30V30.6C26.9735 30.6 30.6 26.9735 30.6 22.5H30ZM22.5 0V0.6C26.3108 0.6 29.4 3.68924 29.4 7.5H30H30.6C30.6 3.02649 26.9735 -0.6 22.5 -0.6V0ZM7.5 0V-0.6C3.02649 -0.6 -0.6 3.02649 -0.6 7.5H0H0.6C0.6 3.68924 3.68924 0.6 7.5 0.6V0Z" fill="white" fill-opacity="0.1" mask="url(#path-1-inside-1_57_3681)"/>
<g clip-path="url(#clip0_57_3681)">
<path d="M17.5 15.6253L20.7644 17.8015C20.8114 17.8329 20.8661 17.8508 20.9226 17.8535C20.979 17.8562 21.0352 17.8436 21.085 17.8169C21.1348 17.7902 21.1765 17.7505 21.2056 17.702C21.2346 17.6535 21.25 17.5981 21.25 17.5415V12.419C21.25 12.3641 21.2355 12.31 21.208 12.2624C21.1804 12.2148 21.1408 12.1754 21.0932 12.148C21.0455 12.1206 20.9914 12.1063 20.9364 12.1064C20.8815 12.1066 20.8275 12.1213 20.78 12.149L17.5 14.0628" stroke="#B9B9B9" stroke-width="1.25" stroke-linecap="round" stroke-linejoin="round"/>
<path d="M16.25 11.25H10C9.30964 11.25 8.75 11.8096 8.75 12.5V17.5C8.75 18.1904 9.30964 18.75 10 18.75H16.25C16.9404 18.75 17.5 18.1904 17.5 17.5V12.5C17.5 11.8096 16.9404 11.25 16.25 11.25Z" stroke="#B9B9B9" stroke-width="1.25" stroke-linecap="round" stroke-linejoin="round"/>
</g>
<defs>
<clipPath id="clip0_57_3681">
<rect width="15" height="15" fill="white" transform="translate(7.5 7.5)"/>
</clipPath>
</defs>
</svg>
